<svg width="19" height="39" viewBox="0 0 19 39" fill="none" xmlns="http://www.w3.org/2000/svg">
<path d="M16.6253 38.0383L18.2007 36.1353C18.4111 35.8818 18.5155 35.5903 18.5145 35.2612C18.5135 34.933 18.4073 34.6425 18.1954 34.3908L5.7197 19.5385L18.1041 4.57972C18.3145 4.32602 18.4188 4.03464 18.4178 3.706C18.4168 3.37722 18.3107 3.08675 18.0988 2.835L16.5117 0.945922C16.3002 0.693637 16.0572 0.568485 15.783 0.569667C15.509 0.570847 15.2668 0.69849 15.0569 0.952193L0.371516 18.6892C0.161465 18.9427 0.0569984 19.2342 0.0580014 19.5629C0.0590043 19.8915 0.165246 20.1816 0.376838 20.4332L15.1701 38.0446C15.3817 38.2963 15.6247 38.4208 15.8985 38.4196C16.1727 38.4185 16.4149 38.2919 16.6253 38.0383Z" fill="#322B2B"/>
</svg>
