<svg width="19" height="39" viewBox="0 0 19 39" fill="none" xmlns="http://www.w3.org/2000/svg">
<path d="M2.45641 0.753396L0.862515 2.64463C0.649671 2.89664 0.542478 3.18736 0.540273 3.51641C0.538073 3.84466 0.641366 4.13591 0.850823 4.38923L13.181 19.3339L0.651375 34.2004C0.43853 34.4526 0.331338 34.7432 0.329135 35.0718C0.326932 35.4006 0.430225 35.6919 0.639682 35.9452L2.20828 37.846C2.41729 38.0999 2.65905 38.2268 2.93324 38.2277C3.2072 38.2285 3.45066 38.1027 3.66307 37.8505L18.5206 20.223C18.7331 19.971 18.8404 19.6802 18.8426 19.3516C18.8448 19.0229 18.7414 18.7321 18.5323 18.4789L3.91164 0.757934C3.70252 0.504613 3.46075 0.378324 3.18689 0.37747C2.91271 0.376615 2.66926 0.501391 2.45641 0.753396Z" fill="#322B2B"/>
</svg>
